<svg width="60" height="15" viewBox="0 0 60 15" fill="none" xmlns="http://www.w3.org/2000/svg">
<path fill-rule="evenodd" clip-rule="evenodd" d="M13.2411 3C10.8339 3 9.07157 4.67467 9.07157 7C9.07157 7.90667 9.34022 8.70667 9.81305 9.35733H3.82745C3.36537 9.35733 3 9.73067 3 10.1787V11H13.2411H13.2518C15.659 11 17.4106 9.32533 17.4106 7C17.3998 4.67467 15.659 3 13.2411 3ZM13.2303 9.60267C11.7903 9.60267 10.7372 8.52533 10.7372 7C10.7372 5.496 11.7796 4.39733 13.2303 4.39733C14.6918 4.39733 15.7342 5.496 15.7342 7C15.7342 8.52533 14.6918 9.60267 13.2303 9.60267ZM27.2761 7C27.2761 9.32533 25.5352 11 23.1173 11C20.7102 11 18.9478 9.32533 18.9478 7C18.9478 4.67467 20.7102 3 23.1173 3C25.5245 3 27.2761 4.67467 27.2761 7ZM20.6135 7C20.6135 8.52533 21.6559 9.60267 23.1066 9.60267C24.5681 9.60267 25.6105 8.52533 25.6105 7C25.6105 5.496 24.5681 4.39733 23.1066 4.39733C21.6559 4.39733 20.6135 5.496 20.6135 7ZM36.0777 6.40267V10.1787H36.0455V11H35.218C34.7667 11 34.3906 10.6373 34.3906 10.1787V6.40267C34.3906 5.16533 33.6168 4.35467 32.424 4.35467C31.2312 4.35467 30.4574 5.176 30.4574 6.40267V11H29.63C29.1787 11 28.8025 10.6373 28.8025 10.1787V6.40267C28.8025 4.376 30.2748 3 32.424 3C34.5947 3 36.0777 4.376 36.0777 6.40267ZM44.8781 3.66133V3H44.0613C43.5993 3 43.2339 3.37333 43.2339 3.82133V7.608C43.2339 8.83467 42.4387 9.63467 41.2458 9.63467C40.053 9.63467 39.2793 8.83467 39.2793 7.608V6.66933V3.98133V3.66133V3H38.4626C38.0005 3 37.6351 3.36267 37.6351 3.82133V7.61867C37.6351 9.63467 39.1073 11 41.2673 11C43.4166 11 44.8888 9.624 44.8888 7.61867V5.688V3.98133L44.8781 3.66133ZM52.2185 4.48267C52.7021 3.55467 53.6908 3 54.9481 3C56.7964 3 58.0107 4.22667 58 6.09333V11H57.1725C56.7212 11 56.3451 10.6373 56.3451 10.1787V6.05067C56.3451 5.016 55.7003 4.312 54.7009 4.312C53.7015 4.312 53.0352 5.016 53.0352 6.05067V8.84533V10.0187V10.3387V10.8827V11H52.2185C51.7672 11 51.3911 10.6373 51.3911 10.1787V6.05067C51.3911 5.016 50.7248 4.312 49.7254 4.312C48.726 4.312 48.0812 5.016 48.0812 6.05067V10.168V10.9893H47.2538C46.8025 10.9893 46.4263 10.6267 46.4263 10.168V6.09333C46.4263 4.22667 47.6299 3 49.489 3C50.7463 3 51.735 3.55467 52.2185 4.48267Z" fill="black"/>
</svg>
