<svg width="60" height="15" fill="none" xmlns="http://www.w3.org/2000/svg"><path fill-rule="evenodd" clip-rule="evenodd" d="M13.241 3c-2.407 0-4.17 1.675-4.17 4 0 .907.27 1.707.742 2.357H3.827A.825.825 0 003 10.18V11h10.251c2.408 0 4.16-1.675 4.16-4-.011-2.325-1.752-4-4.17-4zm-.01 6.603c-1.44 0-2.494-1.078-2.494-2.603 0-1.504 1.043-2.603 2.493-2.603 1.462 0 2.504 1.099 2.504 2.603 0 1.525-1.042 2.603-2.504 2.603zM27.275 7c0 2.325-1.74 4-4.159 4-2.407 0-4.17-1.675-4.17-4s1.763-4 4.17-4 4.16 1.675 4.16 4zm-6.663 0c0 1.525 1.043 2.603 2.494 2.603 1.461 0 2.503-1.078 2.503-2.603 0-1.504-1.042-2.603-2.503-2.603-1.451 0-2.494 1.099-2.494 2.603zm15.465-.597v3.776h-.033V11h-.827a.825.825 0 01-.827-.821V6.403c0-1.238-.774-2.048-1.967-2.048s-1.967.821-1.967 2.048V11h-.827a.825.825 0 01-.828-.821V6.403C28.802 4.376 30.275 3 32.424 3c2.17 0 3.654 1.376 3.654 3.403zm8.8-2.742V3h-.817a.825.825 0 00-.827.821v3.787c0 1.227-.795 2.027-1.988 2.027s-1.967-.8-1.967-2.027V3h-.816a.818.818 0 00-.828.821V7.62c0 2.016 1.472 3.381 3.632 3.381 2.15 0 3.622-1.376 3.622-3.381V3.98l-.01-.32zm7.34.822C52.703 3.555 53.691 3 54.948 3 56.796 3 58.011 4.227 58 6.093V11h-.828a.825.825 0 01-.827-.821V6.05c0-1.035-.645-1.739-1.644-1.739-1 0-1.666.704-1.666 1.739V11h-.816a.825.825 0 01-.828-.821V6.05c0-1.035-.666-1.739-1.666-1.739-.999 0-1.644.704-1.644 1.739v4.938h-.827a.825.825 0 01-.828-.821V6.093C46.426 4.227 47.63 3 49.49 3c1.257 0 2.246.555 2.73 1.483z" fill="#000"/></svg>