<svg width="45" height="14" fill="none" xmlns="http://www.w3.org/2000/svg"><g clip-path="url(#clip0)"><path fill-rule="evenodd" clip-rule="evenodd" d="M8.38 3C6.41 3 4.967 4.465 4.967 6.5c0 .793.22 1.493.606 2.063H.677c-.378 0-.677.326-.677.718V10h8.388c1.97 0 3.402-1.465 3.402-3.5C11.783 4.465 10.357 3 8.38 3zm-.01 5.777c-1.178 0-2.04-.942-2.04-2.277 0-1.316.853-2.277 2.04-2.277 1.196 0 2.049.961 2.049 2.277 0 1.335-.853 2.277-2.049 2.277zM19.862 6.5c0 2.035-1.424 3.5-3.402 3.5-1.97 0-3.412-1.465-3.412-3.5S14.49 3 16.459 3c1.97 0 3.403 1.465 3.403 3.5zm-5.451 0c0 1.335.853 2.277 2.04 2.277 1.195 0 2.048-.942 2.048-2.277 0-1.316-.853-2.277-2.048-2.277-1.187 0-2.04.961-2.04 2.277zm12.652-.523v3.304h-.026V10h-.677c-.37 0-.677-.317-.677-.719V5.977c0-1.082-.633-1.792-1.609-1.792s-1.609.719-1.609 1.792V10h-.677c-.37 0-.677-.317-.677-.719V5.977C21.111 4.204 22.315 3 24.074 3c1.776 0 2.99 1.204 2.99 2.977zm7.201-2.398V3h-.668c-.378 0-.677.327-.677.719v3.313c0 1.073-.65 1.773-1.627 1.773-.976 0-1.609-.7-1.609-1.773V3h-.668c-.378 0-.677.317-.677.719V7.04c0 1.764 1.204 2.959 2.972 2.959 1.758 0 2.963-1.204 2.963-2.959V3.86l-.009-.28zm6.005.718C40.666 3.485 41.474 3 42.504 3 44.015 3 45.009 4.073 45 5.707V10h-.677c-.37 0-.677-.317-.677-.719V5.67c0-.905-.528-1.521-1.345-1.521-.818 0-1.363.616-1.363 1.521V10h-.669c-.369 0-.676-.317-.676-.719V5.67c0-.905-.546-1.521-1.363-1.521-.818 0-1.345.616-1.345 1.521v4.322h-.677c-.37 0-.677-.318-.677-.719V5.707c0-1.634.984-2.707 2.505-2.707 1.029 0 1.838.485 2.233 1.297z" fill="#000"/></g><defs><clipPath id="clip0"><path fill="#fff" d="M0 0h45v14H0z"/></clipPath></defs></svg>