<svg width="100" height="13" fill="none" xmlns="http://www.w3.org/2000/svg"><g clip-path="url(#clip0)" fill="#000"><path d="M13.403.808c-1.329.174-1.654.348-2.382 2.081-.536 1.27-3.277 7.722-4.25 10.111h-.654C4.945 9.9 3.237 5.393 2.104 2.541 1.553 1.116 1.211.923 0 .808V.273h5.044v.535c-1.47.155-1.55.385-1.271 1.1.496 1.404 1.947 5.237 3.196 8.436 1.054-2.485 2.364-5.617 3.31-8.052.435-1.118.198-1.291-1.432-1.484V.273h4.567l-.01.535zm8.453 11.981v-.535c1.627-.171 1.787-.249 1.787-1.873V2.715c0-1.656-.16-1.733-1.787-1.907V.273h5.323v.535c-1.655.174-1.81.251-1.81 1.907v7.648c0 1.655.16 1.714 1.81 1.872v.535l-5.323.019zm25.541.155c-.257 0-.477-.022-.734-.04-1.45-.097-2.225-.463-3.1-1.656-.733-.982-1.448-2.196-2.085-3.178-.397-.618-.653-.733-1.654-.733h-.698v3.025c0 1.637.22 1.734 1.81 1.873v.535H35.62v-.535c1.654-.171 1.787-.249 1.787-1.873V2.677c0-1.637-.218-1.695-1.787-1.872V.27h5.063c1.45 0 2.424.174 3.177.655.434.273.788.652 1.025 1.098.237.446.35.945.327 1.446 0 1.656-1.104 2.696-2.563 3.312.359.599 1.211 1.888 1.81 2.755.473.696.996 1.36 1.566 1.985a2.87 2.87 0 001.45.885l-.08.538zm-7.328-6.27c1.034 0 1.688-.153 2.184-.557.775-.559 1.103-1.337 1.103-2.37 0-2.062-1.409-2.81-2.937-2.81-.576 0-.915.074-1.053.192-.18.133-.24.326-.24.826v4.719h.943zM70.017.808c-1.269.136-1.688.329-1.746 1.214-.022.616-.06 1.426-.06 3.21v7.725h-.756L58.958 2.89v4.815c0 1.733.058 2.6.099 3.159.039.982.535 1.27 1.964 1.386v.534h-4.824v-.534c1.23-.097 1.707-.386 1.787-1.338.058-.618.1-1.485.1-3.237v-4.9c0-.535-.042-.848-.398-1.273-.378-.482-.794-.597-1.767-.693V.273h2.978l8.42 9.688V5.238c0-1.79-.039-2.62-.1-3.197-.06-.867-.515-1.137-2.104-1.233V.273h4.904v.535zM86.66 12.789v-.535c1.291-.153 1.448-.345 1.173-1.07-.276-.725-.657-1.715-1.073-2.926h-4.291c-.318.866-.615 1.604-.894 2.407-.436 1.252-.157 1.404 1.47 1.605v.535h-4.587v-.535c1.253-.153 1.57-.29 2.265-2.022L84.832.137l.637-.116c1.25 3.293 2.62 6.934 3.861 10.267.634 1.674.814 1.83 2.223 1.982v.535l-4.892-.016zM84.675 2.523a962.392 962.392 0 01-1.909 4.93h3.715l-1.806-4.93z"/></g><defs><clipPath id="clip0"><path fill="#fff" d="M0 0h100v13H0z"/></clipPath></defs></svg>